<?xml version="1.0" encoding="UTF-8"?>
<!DOCTYPE svg PUBLIC "-//W3C//DTD SVG 1.1//EN" "http://www.w3.org/Graphics/SVG/1.1/DTD/svg11.dtd">
<!-- Creator: CorelDRAW X8 -->
<svg xmlns="http://www.w3.org/2000/svg" xml:space="preserve" width="95mm" height="45mm" version="1.1" style="shape-rendering:geometricPrecision; text-rendering:geometricPrecision; image-rendering:optimizeQuality; fill-rule:evenodd; clip-rule:evenodd"
viewBox="0 0 9500 4500"
 xmlns:xlink="http://www.w3.org/1999/xlink">
 <defs>
  <style type="text/css">
   <![CDATA[
    .fil0 {fill:#00AA23}
    .fil1 {fill:black;fill-rule:nonzero}
   ]]>
  </style>
 </defs>
 <g id="Слой_x0020_1">
  <metadata id="CorelCorpID_0Corel-Layer"/>
  <g id="_2669273144336">
   <path class="fil0" d="M6847 142l2332 1974c91,77 69,206 -48,286l-1650 1128 286 -2040c50,-378 -375,-644 -693,-421l-659 450 180 -1279c15,-122 160,-176 252,-98zm-13 3831l-552 377c-107,78 -261,-9 -243,-144l268 -1911 843 -576 -316 2254z"/>
   <path class="fil1" d="M1832 3322l222 0c59,0 102,-16 129,-49 28,-32 37,-77 29,-134l-252 -1653c-26,-174 -129,-261 -307,-261l-322 0c-158,0 -269,73 -332,219l-720 1677c-26,61 -27,110 -3,146 24,37 69,55 134,55l231 0c97,0 163,-46 197,-137l122 -310c10,-28 31,-42 64,-42l538 0c36,0 56,17 61,51l30 274c10,109 70,164 179,164zm-662 -985c38,-96 220,-690 301,-690 61,0 89,597 100,696 4,39 -14,58 -55,58l-301 0c-22,0 -37,-6 -45,-17 -8,-11 -8,-27 0,-47zm2191 -678l556 0c106,0 168,-52 189,-158l12 -73c8,-56 -1,-101 -26,-135 -25,-33 -66,-53 -123,-59 -162,-12 -428,-18 -796,-18 -148,0 -270,39 -367,117 -96,78 -155,187 -177,326l-207 1477c-8,59 2,105 30,137 29,33 72,49 131,49l225 0c107,0 169,-54 185,-161l88 -632c4,-35 24,-52 58,-52l553 0c110,0 171,-54 183,-161l6 -43c8,-58 -2,-104 -31,-135 -28,-31 -72,-47 -130,-47l-517 0c-41,0 -58,-21 -52,-64l31 -228c8,-53 25,-89 50,-109 25,-21 68,-31 129,-31zm1696 0l556 0c105,0 168,-52 189,-158l12 -73c8,-56 -1,-101 -26,-135 -25,-33 -66,-53 -123,-59 -162,-12 -428,-18 -796,-18 -148,0 -270,39 -367,117 -96,78 -155,187 -178,326l-206 1477c-8,59 2,105 30,137 29,33 72,49 131,49l225 0c107,0 169,-54 185,-161l88 -632c4,-35 24,-52 58,-52l553 0c110,0 170,-54 183,-161l6 -43c8,-58 -2,-104 -31,-135 -28,-31 -72,-47 -130,-47l-517 0c-41,0 -58,-21 -52,-64l31 -228c8,-53 24,-89 50,-109 25,-21 68,-31 129,-31z"/>
  </g>
 </g>
</svg>
